<svg xmlns="http://www.w3.org/2000/svg" viewBox="0 0 64 64" fill="none">
  <path d="M32 6C43.7097 6 50.5077 6 54.7538 9.24619C58.9999 12.4924 59 18.9086 59 32C59 45.0914 58.9999 51.5077 54.7538 54.7538C50.5077 58 43.7097 58 32 58C20.2903 58 13.4923 58 9.24619 54.7538C5.00008 51.5077 5 45.0914 5 32C5 18.9086 5.00008 12.4924 9.24619 9.24619C13.4923 6 20.2903 6 32 6Z" fill="#C61D24"/>
  <path d="M19 20.5C19 19.1193 20.1193 18 21.5 18H29.1473C31.9161 18 34.0556 18.6403 35.5659 19.9208C36.7741 20.9415 37.4782 22.2991 37.6782 23.9937C37.7617 24.7013 37.2514 25.3417 36.539 25.3417H32.6212C32.1067 25.3417 31.6684 24.9697 31.5424 24.4708C31.4401 24.0655 31.2196 23.7337 30.8808 23.4753C30.3511 23.0711 29.4938 22.869 28.309 22.869H24.7798V28.0694H28.466C29.4922 28.0694 30.2839 27.8582 30.841 27.436C31.2032 27.1614 31.4329 26.8037 31.5302 26.363C31.6347 25.8897 32.0648 25.5491 32.5495 25.5491H36.5125C37.2382 25.5491 37.7537 26.2122 37.6462 26.9299C37.4058 28.5355 36.7179 29.8512 35.5824 30.8771C35.1598 31.2592 34.7016 31.5888 34.2078 31.8659C33.6411 32.1839 33.6326 32.9802 34.1819 33.3275C34.7193 33.6675 35.2055 34.0727 35.6404 34.5431C37.0424 36.0606 37.7434 37.9219 37.7434 40.127C37.7434 42.5342 36.9445 44.4412 35.3466 45.848C33.7486 47.2548 31.4653 47.9583 28.4965 47.9583H21.5C20.1193 47.9583 19 46.839 19 45.4583V20.5ZM24.7798 37.5139V43.0894H28.1524C29.4964 43.0894 30.4614 42.8603 31.0475 42.4021C31.6337 41.9438 31.9268 41.2494 31.9268 40.3187C31.9268 39.3704 31.6337 38.6628 31.0475 38.196C30.4614 37.741 29.4964 37.5139 28.1524 37.5139H24.7798Z" fill="white"/>
  <path d="M40.8202 18C41.6803 18 42.4493 18.5383 42.7465 19.3454L45.7104 27.394C45.8814 27.8582 46.5388 27.8582 46.7098 27.394L49.6736 19.3454C49.9709 18.5383 50.7399 18 51.6 18H52.0833C53.464 18 54.5833 19.1193 54.5833 20.5V45.4583C54.5833 46.839 53.464 47.9583 52.0833 47.9583H50.094C48.7133 47.9583 47.594 46.839 47.594 45.4583V31.9693C47.594 31.2657 46.6114 31.1036 46.3852 31.7698L44.6884 36.7674C44.3428 37.7851 43.3873 38.4688 42.3126 38.4688H40.2175C39.1429 38.4688 38.1873 37.7851 37.8418 36.7674L36.1449 31.7698C35.9188 31.1036 34.9362 31.2657 34.9362 31.9693V45.4583C34.9362 46.839 33.8169 47.9583 32.4362 47.9583H30.4469C29.0662 47.9583 27.9469 46.839 27.9469 45.4583V42.2413C27.9469 41.5788 28.4738 41.0376 29.1361 41.0136C29.7596 40.9911 30.2934 40.4986 30.2934 39.8747V20.5C30.2934 19.1193 31.4127 18 32.7934 18H33.2767C34.1367 18 34.9058 18.5383 35.203 19.3454L38.1669 27.394C38.3379 27.8582 38.9953 27.8582 39.1663 27.394L42.1301 19.3454C42.4274 18.5383 43.1964 18 44.0565 18H40.8202Z" fill="white"/>
</svg>
